<svg xmlns="http://www.w3.org/2000/svg" style="display: none;">
  <!-- Wave Pattern for Section Dividers -->
  <symbol id="wave-divider" viewBox="0 0 1440 100" preserveAspectRatio="none">
    <path d="M0,50 C240,100 480,0 720,50 C960,100 1200,0 1440,50 L1440,100 L0,100 Z" fill="currentColor"></path>
  </symbol>
  
  <!-- Background Pattern -->
  <symbol id="bg-pattern" viewBox="0 0 100 100">
    <circle cx="10" cy="10" r="2" fill="currentColor" opacity="0.1" />
    <circle cx="30" cy="10" r="2" fill="currentColor" opacity="0.1" />
    <circle cx="50" cy="10" r="2" fill="currentColor" opacity="0.1" />
    <circle cx="70" cy="10" r="2" fill="currentColor" opacity="0.1" />
    <circle cx="90" cy="10" r="2" fill="currentColor" opacity="0.1" />
    <circle cx="10" cy="30" r="2" fill="currentColor" opacity="0.1" />
    <circle cx="30" cy="30" r="2" fill="currentColor" opacity="0.1" />
    <circle cx="50" cy="30" r="2" fill="currentColor" opacity="0.1" />
    <circle cx="70" cy="30" r="2" fill="currentColor" opacity="0.1" />
    <circle cx="90" cy="30" r="2" fill="currentColor" opacity="0.1" />
    <circle cx="10" cy="50" r="2" fill="currentColor" opacity="0.1" />
    <circle cx="30" cy="50" r="2" fill="currentColor" opacity="0.1" />
    <circle cx="50" cy="50" r="2" fill="currentColor" opacity="0.1" />
    <circle cx="70" cy="50" r="2" fill="currentColor" opacity="0.1" />
    <circle cx="90" cy="50" r="2" fill="currentColor" opacity="0.1" />
    <circle cx="10" cy="70" r="2" fill="currentColor" opacity="0.1" />
    <circle cx="30" cy="70" r="2" fill="currentColor" opacity="0.1" />
    <circle cx="50" cy="70" r="2" fill="currentColor" opacity="0.1" />
    <circle cx="70" cy="70" r="2" fill="currentColor" opacity="0.1" />
    <circle cx="90" cy="70" r="2" fill="currentColor" opacity="0.1" />
    <circle cx="10" cy="90" r="2" fill="currentColor" opacity="0.1" />
    <circle cx="30" cy="90" r="2" fill="currentColor" opacity="0.1" />
    <circle cx="50" cy="90" r="2" fill="currentColor" opacity="0.1" />
    <circle cx="70" cy="90" r="2" fill="currentColor" opacity="0.1" />
    <circle cx="90" cy="90" r="2" fill="currentColor" opacity="0.1" />
  </symbol>
</svg> 