<svg xmlns="http://www.w3.org/2000/svg" style="display: none;">
  <!-- Truck/Delivery Icon -->
  <symbol id="icon-truck" viewBox="0 0 24 24">
    <path d="M20 8h-3V4H3c-1.1 0-2 .9-2 2v11h2c0 1.66 1.34 3 3 3s3-1.34 3-3h6c0 1.66 1.34 3 3 3s3-1.34 3-3h2v-5l-3-4zM6 18.5c-.83 0-1.5-.67-1.5-1.5s.67-1.5 1.5-1.5 1.5.67 1.5 1.5-.67 1.5-1.5 1.5zm13.5-9l1.96 2.5H17V9.5h2.5zm-1.5 9c-.83 0-1.5-.67-1.5-1.5s.67-1.5 1.5-1.5 1.5.67 1.5 1.5-.67 1.5-1.5 1.5z"/>
  </symbol>
  
  <!-- Furniture Icon -->
  <symbol id="icon-furniture" viewBox="0 0 24 24">
    <path d="M20 10V7c0-1.1-.9-2-2-2H6c-1.1 0-2 .9-2 2v3c-1.1 0-2 .9-2 2v5h1.33L4 19h1l.67-2h12.67l.66 2h1l.67-2H22v-5c0-1.1-.9-2-2-2zm-9 0H6V7h5v3zm7 0h-5V7h5v3z"/>
  </symbol>
  
  <!-- Appliance Icon -->
  <symbol id="icon-appliance" viewBox="0 0 24 24">
    <path d="M18 2.01L6 2c-1.1 0-2 .89-2 2v16c0 1.1.9 2 2 2h12c1.1 0 2-.9 2-2V4c0-1.11-.9-1.99-2-1.99zM18 20H6v-9.02h12V20zm0-11H6V4h12v5zM8 5h2v2H8zm0 7h2v6H8z"/>
  </symbol>
  
  <!-- Carpet/Disposal Icon -->
  <symbol id="icon-carpet" viewBox="0 0 24 24">
    <path d="M6 19c0 1.1.9 2 2 2h8c1.1 0 2-.9 2-2V7H6v12zM19 4h-3.5l-1-1h-5l-1 1H5v2h14V4z"/>
  </symbol>
  
  <!-- Phone Icon -->
  <symbol id="icon-phone" viewBox="0 0 24 24">
    <path d="M6.62 10.79c1.44 2.83 3.76 5.14 6.59 6.59l2.2-2.2c.27-.27.67-.36 1.02-.24 1.12.37 2.33.57 3.57.57.55 0 1 .45 1 1V20c0 .55-.45 1-1 1-9.39 0-17-7.61-17-17 0-.55.45-1 1-1h3.5c.55 0 1 .45 1 1 0 1.25.2 2.45.57 3.57.11.35.03.74-.25 1.02l-2.2 2.2z"/>
  </symbol>
  
  <!-- Email Icon -->
  <symbol id="icon-email" viewBox="0 0 24 24">
    <path d="M20 4H4c-1.1 0-1.99.9-1.99 2L2 18c0 1.1.9 2 2 2h16c1.1 0 2-.9 2-2V6c0-1.1-.9-2-2-2zm0 4l-8 5-8-5V6l8 5 8-5v2z"/>
  </symbol>
  
  <!-- Location Icon -->
  <symbol id="icon-location" viewBox="0 0 24 24">
    <path d="M12 2C8.13 2 5 5.13 5 9c0 5.25 7 13 7 13s7-7.75 7-13c0-3.87-3.13-7-7-7zm0 9.5c-1.38 0-2.5-1.12-2.5-2.5s1.12-2.5 2.5-2.5 2.5 1.12 2.5 2.5-1.12 2.5-2.5 2.5z"/>
  </symbol>
  
  <!-- Logo Curve -->
  <symbol id="logo-curve" viewBox="0 0 100 100">
    <path d="M0,0 L100,0 L100,100 L0,100 Z" fill="black"/>
    <path d="M-20,120 Q50,-20 120,50" stroke="#f5d742" stroke-width="15" fill="none"/>
  </symbol>
  
  <!-- Chat Icon -->
  <symbol id="icon-chat" viewBox="0 0 24 24">
    <path d="M20 2H4c-1.1 0-2 .9-2 2v18l4-4h14c1.1 0 2-.9 2-2V4c0-1.1-.9-2-2-2zm0 14H5.17L4 17.17V4h16v12z"/>
    <path d="M7 9h10M7 12h7" stroke="currentColor" stroke-width="1.5" fill="none"/>
  </symbol>
</svg> 